<svg id="Layer_5" enable-background="new 0 0 64 64" height="512" viewBox="0 0 64 64" width="512" xmlns="http://www.w3.org/2000/svg"><g><g><g><path d="m26 38h12l4 18h-20z" fill="#d3a06c"/></g><g><path d="m46 59v3h-28v-3c0-1.66 1.34-3 3-3h1 20 1c1.66 0 3 1.34 3 3z" fill="#b27946"/></g><g><path d="m38 26v2h-4v-2h-4v2h-4v-2h-4v6l4 6h12l4-6v-6z" fill="#cf9e76"/></g><g><path d="m13 20v1c0 1.66-1.34 3-3 3-.83 0-1.58-.34-2.12-.88s-.88-1.29-.88-2.12v-1h3z" fill="#aab2bd"/></g><g><path d="m13 19.21v.79h-3-3v-.75c0-1-.46-1.97-1.3-2.51-2.5-1.59-4.05-4.53-3.63-7.79.45-3.59 3.4-6.49 7-6.9 4.83-.54 8.93 3.22 8.93 7.95 0 2.83-1.47 5.31-3.68 6.73-.84.54-1.32 1.48-1.32 2.48z" fill="#ffeaa7"/></g><g><circle cx="10" cy="10" fill="#fcd770" r="2"/></g><g><path d="m62 8v4l-1.48.54c-.04.09-.07.19-.11.28l.66 1.42-2.83 2.83-1.42-.66c-.09.04-.19.07-.28.11l-.54 1.48h-4l-.54-1.48c-.09-.04-.19-.07-.28-.11l-1.42.66-2.83-2.83.66-1.42c-.04-.09-.07-.19-.11-.28l-1.48-.54v-4l1.48-.54c.04-.09.07-.19.11-.28l-.66-1.42 2.83-2.83 1.42.66c.09-.04.19-.07.28-.11l.54-1.48h4l.54 1.48c.09.04.19.07.28.11l1.42-.66 2.83 2.83-.66 1.42c.04.09.07.19.11.28zm-4 2c0-2.21-1.79-4-4-4s-4 1.79-4 4 1.79 4 4 4 4-1.79 4-4z" fill="#fcd770"/></g></g><g><path d="m63 7.299-1.321-.479.596-1.273-3.82-3.82-1.273.596-.481-1.323h-5.402l-.479 1.321-1.273-.596-3.82 3.82.596 1.273-1.323.481v5.402l1.321.479-.596 1.273 3.82 3.82 1.273-.596.481 1.323h5.402l.479-1.321 1.273.596 3.82-3.82-.596-1.273 1.323-.481zm-2 4-.823.3-.442.202-.427 1.031.561 1.198-1.838 1.838-1.198-.561-1.08.446-.454 1.247h-2.598l-.3-.823-.202-.442-1.031-.427-1.198.561-1.838-1.838.561-1.198-.446-1.08-1.247-.454v-2.598l.823-.3.442-.202.427-1.031-.56-1.198 1.838-1.838 1.198.561 1.08-.446.453-1.247h2.598l.3.823.202.442 1.031.427 1.198-.561 1.838 1.838-.561 1.198.446 1.08 1.247.454z"/><path d="m54 5c-2.757 0-5 2.243-5 5s2.243 5 5 5 5-2.243 5-5-2.243-5-5-5zm0 8c-1.654 0-3-1.346-3-3s1.346-3 3-3 3 1.346 3 3-1.346 3-3 3z"/><path d="m14 21v-1.791c0-.68.322-1.293.862-1.64 2.591-1.666 4.138-4.496 4.138-7.569 0-2.561-1.096-5.008-3.006-6.714-1.91-1.707-4.48-2.515-7.039-2.228-4.051.459-7.365 3.723-7.88 7.763-.447 3.51 1.118 6.867 4.084 8.762.519.331.841.97.841 1.667v1.75c0 2.206 1.794 4 4 4s4-1.794 4-4zm-7.764-5.103c-2.309-1.475-3.525-4.089-3.177-6.823.399-3.137 2.974-5.672 6.12-6.027.278-.032.555-.048.829-.048 1.725 0 3.353.617 4.652 1.778 1.487 1.328 2.34 3.232 2.34 5.223 0 2.39-1.204 4.591-3.219 5.887-1.058.68-1.704 1.833-1.768 3.113h-1.013v-6.184c1.161-.414 2-1.514 2-2.816 0-1.654-1.346-3-3-3s-3 1.346-3 3c0 1.302.839 2.402 2 2.816v6.184h-1.015c-.074-1.292-.711-2.439-1.749-3.103zm2.764-5.897c0-.552.448-1 1-1s1 .448 1 1-.448 1-1 1-1-.448-1-1zm-1 11h4c0 1.103-.897 2-2 2s-2-.897-2-2z"/><path d="m43 55h-.198l-3.733-16.801 3.931-5.896v-7.303h-6v2h-2v-2h-6v2h-2v-2h-6v7.303l3.931 5.896-3.733 16.801h-.198c-2.206 0-4 1.794-4 4v4h30v-4c0-2.206-1.794-4-4-4zm-16.465-18-2.667-4h16.263l-2.667 4zm-1.535-10v2h6v-2h2v2h6v-2h2v4h-18v-4zm1.802 12h10.395l3.556 16h-17.506zm18.198 22h-26v-2c0-1.103.897-2 2-2h22c1.103 0 2 .897 2 2z"/><path d="m27.346 44.877h2.001v2.001h-2.001z" transform="matrix(.217 -.976 .976 .217 -22.583 63.607)"/><path d="m28.215 40.972h2v2.001h-2z" transform="matrix(.217 -.976 .976 .217 -18.093 61.391)"/><path d="m26.479 48.781h2v2.001h-2z" transform="matrix(.218 -.976 .976 .218 -27.09 65.767)"/><path d="m53 21h2v2h-2z"/><path d="m53 25h2v2h-2z"/><path d="m53 36c0 .552-.448 1-1 1h-7v2h7c1.654 0 3-1.346 3-3v-7h-2z"/><path d="m9 31h2v2h-2z"/><path d="m9 27h2v2h-2z"/><path d="m19 37h-7c-.552 0-1-.448-1-1v-1h-2v1c0 1.654 1.346 3 3 3h7z"/></g></g></svg>