<svg height="512pt" viewBox="0 0 512 512" width="512pt" xmlns="http://www.w3.org/2000/svg"><path d="m256 452c-8.285156 0-15-6.714844-15-15v-111c0-8.285156 6.714844-15 15-15s15 6.714844 15 15v111c0 8.285156-6.714844 15-15 15zm0 0" fill="#5a5a6e"/><path d="m256 201c-8.285156 0-15-6.714844-15-15v-111c0-8.285156 6.714844-15 15-15s15 6.714844 15 15v111c0 8.285156-6.714844 15-15 15zm0 0" fill="#5a5a6e"/><path d="m377 271h-51c-8.285156 0-15-6.714844-15-15s6.714844-15 15-15h51c8.285156 0 15 6.714844 15 15s-6.714844 15-15 15zm0 0" fill="#46465a"/><path d="m186 271h-51c-8.285156 0-15-6.714844-15-15s6.714844-15 15-15h51c8.285156 0 15 6.714844 15 15s-6.714844 15-15 15zm0 0" fill="#5a5a6e"/><path d="m135 402h-60c-8.285156 0-15-6.714844-15-15s6.714844-15 15-15h45v-232h-45c-8.285156 0-15-6.714844-15-15s6.714844-15 15-15h60c8.285156 0 15 6.714844 15 15v262c0 8.285156-6.714844 15-15 15zm0 0" fill="#5a5a6e"/><path d="m437 402h-60c-8.285156 0-15-6.714844-15-15v-262c0-8.285156 6.714844-15 15-15h60c8.285156 0 15 6.714844 15 15s-6.714844 15-15 15h-45v232h45c8.285156 0 15 6.714844 15 15s-6.714844 15-15 15zm0 0" fill="#46465a"/><path d="m75 170h-60c-8.285156 0-15-6.714844-15-15v-60c0-8.285156 6.714844-15 15-15h60c8.285156 0 15 6.714844 15 15v60c0 8.285156-6.714844 15-15 15zm0 0" fill="#008fd2"/><path d="m75 432h-60c-8.285156 0-15-6.714844-15-15v-60c0-8.285156 6.714844-15 15-15h60c8.285156 0 15 6.714844 15 15v60c0 8.285156-6.714844 15-15 15zm0 0" fill="#008fd2"/><path d="m467 170c-24.8125 0-45-20.1875-45-45s20.1875-45 45-45 45 20.1875 45 45-20.1875 45-45 45zm0 0" fill="#005f95"/><path d="m467 432c-24.8125 0-45-20.1875-45-45s20.1875-45 45-45 45 20.1875 45 45-20.1875 45-45 45zm0 0" fill="#005f95"/><path d="m271 437v-111c0-8.285156-6.714844-15-15-15v141c8.285156 0 15-6.714844 15-15zm0 0" fill="#46465a"/><path d="m271 186v-111c0-8.285156-6.714844-15-15-15v141c8.285156 0 15-6.714844 15-15zm0 0" fill="#46465a"/><path d="m256 341c-3.839844 0-7.679688-1.464844-10.605469-4.394531l-70-70c-5.859375-5.859375-5.859375-15.355469 0-21.210938l70-70c5.855469-5.859375 15.355469-5.859375 21.210938 0l70 70c5.859375 5.855469 5.859375 15.351563 0 21.210938l-70 70c-2.925781 2.929687-6.765625 4.394531-10.605469 4.394531zm0 0" fill="#feef55"/><path d="m336.605469 245.394531-70-70c-2.925781-2.929687-6.765625-4.394531-10.605469-4.394531v170c3.839844 0 7.679688-1.464844 10.605469-4.394531l70-70c5.859375-5.855469 5.859375-15.355469 0-21.210938zm0 0" fill="#fedc00"/><path d="m296 512h-80c-5.53125 0-10.613281-3.046875-13.226562-7.921875-2.609376-4.878906-2.324219-10.796875.746093-15.398437l40-60c2.78125-4.171876 7.464844-6.679688 12.480469-6.679688s9.699219 2.507812 12.480469 6.679688l40 60c3.066406 4.601562 3.351562 10.519531.742187 15.398437-2.609375 4.875-7.691406 7.921875-13.222656 7.921875zm0 0" fill="#008fd2"/><path d="m268.480469 428.679688c-2.78125-4.171876-7.464844-6.679688-12.480469-6.679688v90h40c5.53125 0 10.613281-3.046875 13.226562-7.921875 2.609376-4.878906 2.324219-10.796875-.746093-15.398437zm0 0" fill="#005f95"/><path d="m296 90h-80c-5.53125 0-10.613281-3.046875-13.226562-7.921875-2.609376-4.878906-2.324219-10.796875.746093-15.398437l40-60c2.78125-4.171876 7.464844-6.679688 12.480469-6.679688s9.699219 2.507812 12.480469 6.679688l40 60c3.066406 4.601562 3.355469 10.519531.746093 15.398437-2.613281 4.875-7.695312 7.921875-13.226562 7.921875zm0 0" fill="#008fd2"/><path d="m309.226562 82.078125c2.609376-4.878906 2.324219-10.796875-.746093-15.398437l-40-60c-2.78125-4.171876-7.464844-6.679688-12.480469-6.679688v90h40c5.53125 0 10.613281-3.046875 13.226562-7.921875zm0 0" fill="#005f95"/></svg>